<?xml version="1.0" encoding="utf-8"?>
<!-- Generator: Adobe Illustrator 15.1.0, SVG Export Plug-In . SVG Version: 6.00 Build 0)  -->
<!DOCTYPE svg PUBLIC "-//W3C//DTD SVG 1.1//EN" "http://www.w3.org/Graphics/SVG/1.1/DTD/svg11.dtd">
<svg version="1.1" id="Layer_1" xmlns="http://www.w3.org/2000/svg" xmlns:xlink="http://www.w3.org/1999/xlink" x="0px" y="0px"
	 width="32px" height="32px" viewBox="0 0 32 32" enable-background="new 0 0 32 32" xml:space="preserve">
<g>
	<path fill="#FFFFFF" d="M29.328,11.129c-0.021-0.313-0.279-0.563-0.602-0.563h-4.32l0,0l0,0V3.401c0-0.332-0.271-0.603-0.604-0.603
		H8.194c-0.334,0-0.604,0.271-0.604,0.603v7.164l0,0H3.27l0,0c-0.32,0-0.58,0.25-0.6,0.563H2.667v12.119
		c0,0.332,0.27,0.602,0.604,0.602l0,0h4.322v-5.045l0,0h1.645h13.527h1.645l0,0v5.045h4.32c0.334,0,0.605-0.27,0.605-0.602V11.129
		H29.328z M22.764,13.268H9.235V5.046c0-0.333,0.271-0.604,0.604-0.604l0,0H22.16c0.334,0,0.604,0.27,0.604,0.604V13.268
		L22.764,13.268z"/>
	<path fill="#FFFFFF" d="M9.276,20.477v8.121c0,0.334,0.271,0.604,0.604,0.604h12.24c0.334,0,0.604-0.27,0.604-0.604v-8.121H9.276z
		 M21.342,27.5c0,0.242-0.219,0.439-0.488,0.439h-9.898c-0.27,0-0.488-0.195-0.488-0.439v-5.875h10.875V27.5z"/>
</g>
</svg>
