<?xml version="1.0" encoding="utf-8"?>
<!-- Generator: Adobe Illustrator 15.1.0, SVG Export Plug-In . SVG Version: 6.00 Build 0)  -->
<!DOCTYPE svg PUBLIC "-//W3C//DTD SVG 1.1//EN" "http://www.w3.org/Graphics/SVG/1.1/DTD/svg11.dtd">
<svg version="1.1" id="Layer_1" xmlns="http://www.w3.org/2000/svg" xmlns:xlink="http://www.w3.org/1999/xlink" x="0px" y="0px"
	 width="32px" height="32px" viewBox="0 0 32 32" enable-background="new 0 0 32 32" xml:space="preserve">
<path fill="#FFFFFF" d="M20.028,5.792l8.114,1.937L25.55,9.883c1.319,2.144,1.909,4.646,1.675,7.198
	c-0.289,3.113-1.775,5.928-4.181,7.926c-2.406,1.998-5.444,2.939-8.559,2.65c-3.113-0.288-5.928-1.773-7.927-4.18
	c-1.997-2.405-2.938-5.444-2.65-8.559c0.29-3.113,1.773-5.927,4.179-7.925c2.088-1.735,4.729-2.693,7.437-2.702l0.011,3.182
	c-1.974,0.004-3.896,0.703-5.417,1.965c-3.616,3.003-4.116,8.391-1.112,12.008c3.003,3.616,8.391,4.116,12.007,1.113
	c3.177-2.638,3.947-7.113,2.054-10.615l-2.625,2.178L20.028,5.792z"/>
</svg>
