<?xml version="1.0" encoding="utf-8"?>
<!-- Generator: Adobe Illustrator 15.1.0, SVG Export Plug-In . SVG Version: 6.00 Build 0)  -->
<!DOCTYPE svg PUBLIC "-//W3C//DTD SVG 1.1//EN" "http://www.w3.org/Graphics/SVG/1.1/DTD/svg11.dtd">
<svg version="1.1" id="Layer_1" xmlns="http://www.w3.org/2000/svg" xmlns:xlink="http://www.w3.org/1999/xlink" x="0px" y="0px"
	 width="32px" height="32px" viewBox="0 0 32 32" enable-background="new 0 0 32 32" xml:space="preserve">
<g>
	<polyline fill="none" stroke="#FFFFFF" stroke-width="2" stroke-miterlimit="10" points="9.665,16 16,16 16.001,22.38 	"/>
	<polyline fill="none" stroke="#FFFFFF" stroke-width="2" stroke-miterlimit="10" points="22.335,16.003 16,16 16.001,9.622 	"/>
</g>
<circle fill="none" stroke="#FFFFFF" stroke-width="2" stroke-miterlimit="10" cx="16" cy="16" r="13.333"/>
<g>
	<path fill="#808080" d="M16,46.173c-6.627,0-12,5.373-12,12s5.372,12,12,12c6.627,0,11.999-5.373,11.999-12
		S22.627,46.173,16,46.173z M23.085,59.177L17,59.174l0.001,6.135h-2L15,59.173H8.915v-2H15l0.001-6.134h2L17,57.174l6.085,0.003
		V59.177z"/>
</g>
</svg>
