<?xml version="1.0" encoding="utf-8"?>
<!-- Generator: Adobe Illustrator 15.1.0, SVG Export Plug-In . SVG Version: 6.00 Build 0)  -->
<!DOCTYPE svg PUBLIC "-//W3C//DTD SVG 1.1//EN" "http://www.w3.org/Graphics/SVG/1.1/DTD/svg11.dtd">
<svg version="1.1" id="Layer_1" xmlns="http://www.w3.org/2000/svg" xmlns:xlink="http://www.w3.org/1999/xlink" x="0px" y="0px"
	 width="32px" height="32px" viewBox="0 0 32 32" enable-background="new 0 0 32 32" xml:space="preserve">
<g>
	<polyline fill="none" stroke="#FFFFFF" stroke-width="3" stroke-miterlimit="10" points="6.288,16 16,16 16.001,25.781 	"/>
	<polyline fill="none" stroke="#FFFFFF" stroke-width="3" stroke-miterlimit="10" points="25.712,16.003 16,16 16.001,6.221 	"/>
</g>
<g>
	<path fill="#FFFFFF" d="M16,1c8.271,0,15,6.729,15,15c0,8.271-6.729,15.001-15,15.001C7.729,31.001,1,24.271,1,16
		C1,7.729,7.729,1,16,1 M16,0C7.164,0,0,7.164,0,16s7.164,16.001,16,16.001S32,24.836,32,16S24.836,0,16,0L16,0z"/>
</g>
</svg>
