<?xml version="1.0" encoding="utf-8"?>
<!-- Generator: Adobe Illustrator 15.1.0, SVG Export Plug-In . SVG Version: 6.00 Build 0)  -->
<!DOCTYPE svg PUBLIC "-//W3C//DTD SVG 1.1//EN" "http://www.w3.org/Graphics/SVG/1.1/DTD/svg11.dtd">
<svg version="1.1" id="Layer_1" xmlns="http://www.w3.org/2000/svg" xmlns:xlink="http://www.w3.org/1999/xlink" x="0px" y="0px"
	 width="32px" height="32px" viewBox="0 0 32 32" enable-background="new 0 0 32 32" xml:space="preserve">
<path fill="#FFFFFF" d="M10.319,29.537c-1.333,0-2.418-1.085-2.418-2.418L6.84,7.015V5.64h4.204V4.882
	c0-1.334,1.085-2.419,2.419-2.419h5.293c1.333,0,2.418,1.085,2.418,2.419V5.64h4.245l0.006,1.357l-1.041,20.137
	c0,1.317-1.084,2.402-2.416,2.402H10.319z M9.559,27.049c0.001,0.489,0.342,0.83,0.76,0.83h11.65c0.417,0,0.757-0.341,0.757-0.76
	l1.024-19.82H8.517L9.559,27.049z M19.516,5.64V4.882c0-0.419-0.341-0.76-0.759-0.76h-5.293c-0.419,0-0.76,0.341-0.76,0.76V5.64
	H19.516z"/>
<rect x="15.281" y="8.817" fill="#FFFFFF" width="1.658" height="17.542"/>
<rect x="11.586" y="8.832" transform="matrix(-0.998 0.0636 -0.0636 -0.998 25.926 34.3846)" fill="#FFFFFF" width="1.659" height="17.545"/>
<rect x="11.032" y="16.759" transform="matrix(-0.063 0.998 -0.998 -0.063 38.6216 -1.0843)" fill="#FFFFFF" width="17.575" height="1.658"/>
</svg>
