<?xml version="1.0" encoding="utf-8"?>
<!-- Generator: Adobe Illustrator 15.1.0, SVG Export Plug-In . SVG Version: 6.00 Build 0)  -->
<!DOCTYPE svg PUBLIC "-//W3C//DTD SVG 1.1//EN" "http://www.w3.org/Graphics/SVG/1.1/DTD/svg11.dtd">
<svg version="1.1" id="Layer_1" xmlns="http://www.w3.org/2000/svg" xmlns:xlink="http://www.w3.org/1999/xlink" x="0px" y="0px"
	 width="32px" height="32px" viewBox="0 0 32 32" enable-background="new 0 0 32 32" xml:space="preserve">
<path id="tools-5-icon_1_" fill="#FFFFFF" d="M24.313,25.993l-6.394-12.46c-0.408-0.803-0.442-1.747-0.101-2.582
	c0.651-1.58,0.64-3.422-0.195-5.063c-1.083-2.125-3.257-3.354-5.517-3.313l2.472,4.861c-0.379,1.457-3.312,2.946-4.714,2.397
	L7.394,4.971C6.037,6.767,5.733,9.243,6.821,11.38c0.759,1.497,2.052,2.535,3.523,3.014c0.409,0.133,1.749,0.294,2.48,1.732
	l6.395,12.459c0.713,1.411,2.433,1.972,3.844,1.253C24.47,29.121,25.029,27.404,24.313,25.993z"/>
</svg>
