<?xml version="1.0" encoding="utf-8"?>
<!-- Generator: Adobe Illustrator 15.1.0, SVG Export Plug-In . SVG Version: 6.00 Build 0)  -->
<!DOCTYPE svg PUBLIC "-//W3C//DTD SVG 1.1//EN" "http://www.w3.org/Graphics/SVG/1.1/DTD/svg11.dtd">
<svg version="1.1" id="Layer_1" xmlns="http://www.w3.org/2000/svg" xmlns:xlink="http://www.w3.org/1999/xlink" x="0px" y="0px"
	 width="50px" height="50px" viewBox="0 0 50 50" enable-background="new 0 0 50 50" xml:space="preserve">
<line fill="none" stroke="#030405" stroke-width="0.5" stroke-linecap="square" x1="18.75" y1="6.25" x2="31.25" y2="6.25"/>
<line fill="none" stroke="#030405" stroke-width="0.5" stroke-linecap="square" x1="12.5" y1="12.5" x2="18.75" y2="12.5"/>
<line fill="none" stroke="#030405" stroke-width="0.5" stroke-linecap="square" x1="31.25" y1="12.5" x2="37.5" y2="12.5"/>
<line fill="none" stroke="#030405" stroke-width="0.5" stroke-linecap="square" x1="0" y1="18.75" x2="12.5" y2="18.75"/>
<line fill="none" stroke="#030405" stroke-width="0.5" stroke-linecap="square" x1="25" y1="18.75" x2="31.25" y2="18.75"/>
<line fill="none" stroke="#030405" stroke-width="0.5" stroke-linecap="square" x1="25" y1="25.001" x2="43.75" y2="25.001"/>
<line fill="none" stroke="#030405" stroke-width="0.5" stroke-linecap="square" x1="12.5" y1="31.25" x2="25" y2="31.25"/>
<line fill="none" stroke="#030405" stroke-width="0.5" stroke-linecap="square" x1="31.25" y1="31.25" x2="37.5" y2="31.25"/>
<line fill="none" stroke="#030405" stroke-width="0.5" stroke-linecap="square" x1="43.75" y1="31.25" x2="50" y2="31.25"/>
<line fill="none" stroke="#030405" stroke-width="0.5" stroke-linecap="square" x1="6.25" y1="37.5" x2="18.75" y2="37.5"/>
<line fill="none" stroke="#030405" stroke-width="0.5" stroke-linecap="square" x1="31.25" y1="37.5" x2="37.5" y2="37.5"/>
<line fill="none" stroke="#030405" stroke-width="0.5" stroke-linecap="square" x1="0" y1="43.749" x2="12.5" y2="43.749"/>
<line fill="none" stroke="#030405" stroke-width="0.5" stroke-linecap="square" x1="25" y1="43.749" x2="31.25" y2="43.749"/>
<line fill="none" stroke="#030405" stroke-width="0.5" stroke-linecap="square" x1="6.25" y1="0" x2="6.25" y2="12.5"/>
<line fill="none" stroke="#030405" stroke-width="0.5" stroke-linecap="square" x1="6.25" y1="18.75" x2="6.25" y2="37.5"/>
<line fill="none" stroke="#030405" stroke-width="0.5" stroke-linecap="square" x1="12.5" y1="6.25" x2="12.5" y2="18.75"/>
<line fill="none" stroke="#030405" stroke-width="0.5" stroke-linecap="square" x1="12.5" y1="25.001" x2="12.5" y2="31.25"/>
<path fill="none" stroke="#030405" stroke-width="0.5" stroke-linecap="square" d="M12.5,43.749"/>
<line fill="none" stroke="#030405" stroke-width="0.5" stroke-linecap="square" x1="18.75" y1="12.5" x2="18.75" y2="25.001"/>
<line fill="none" stroke="#030405" stroke-width="0.5" stroke-linecap="square" x1="18.75" y1="37.5" x2="18.75" y2="50.001"/>
<line fill="none" stroke="#030405" stroke-width="0.5" stroke-linecap="square" x1="25" y1="6.25" x2="25" y2="18.75"/>
<line fill="none" stroke="#030405" stroke-width="0.5" stroke-linecap="square" x1="25" y1="25.001" x2="25" y2="43.749"/>
<line fill="none" stroke="#030405" stroke-width="0.5" stroke-linecap="square" x1="31.25" y1="31.25" x2="31.25" y2="37.5"/>
<line fill="none" stroke="#030405" stroke-width="0.5" stroke-linecap="square" x1="37.5" y1="0" x2="37.5" y2="18.75"/>
<line fill="none" stroke="#030405" stroke-width="0.5" stroke-linecap="square" x1="37.5" y1="37.5" x2="37.5" y2="50.001"/>
<line fill="none" stroke="#030405" stroke-width="0.5" stroke-linecap="square" x1="31.25" y1="18.75" x2="31.25" y2="25"/>
<rect fill="none" stroke="#030405" stroke-width="0.5" stroke-linecap="square" width="50" height="50"/>
<line fill="none" stroke="#030405" stroke-width="0.5" stroke-linecap="square" x1="43.75" y1="6.25" x2="43.75" y2="43.75"/>
<polyline opacity="0.5" fill="none" stroke="#C00036" stroke-linecap="square" points="52.75,34.375 46.875,34.375 46.875,46.75 
	40.75,46.75 40.75,28.125 28.125,28.125 28.125,40.667 34.375,40.667 34.375,46.75 21.833,46.75 21.833,34.375 9.583,34.375 
	9.667,21.875 15.625,21.875 15.625,28.125 21.833,28.125 21.833,9.458 15.625,9.458 15.625,3.417 9.667,3.417 9.667,15.5 
	2.917,15.5 2.917,3.417 -4.333,3.417 "/>
</svg>
