<?xml version="1.0" encoding="utf-8"?>
<!-- Generator: Adobe Illustrator 15.1.0, SVG Export Plug-In . SVG Version: 6.00 Build 0)  -->
<!DOCTYPE svg PUBLIC "-//W3C//DTD SVG 1.1//EN" "http://www.w3.org/Graphics/SVG/1.1/DTD/svg11.dtd">
<svg version="1.1" id="Layer_1" xmlns="http://www.w3.org/2000/svg" xmlns:xlink="http://www.w3.org/1999/xlink" x="0px" y="0px"
	 width="50px" height="50px" viewBox="0 0 50 50" enable-background="new 0 0 50 50" xml:space="preserve">
<rect x="3" y="3" opacity="0.5" fill="#BDD9A0" width="44" height="44"/>
<g id="Layer_1_1_">
	<g display="none">
		<rect display="inline" fill="none" stroke="#000000" stroke-miterlimit="10" width="50" height="50"/>
		<line display="inline" fill="none" stroke="#000000" stroke-miterlimit="10" x1="0" y1="37.5" x2="50" y2="37.5"/>
		<line display="inline" fill="none" stroke="#000000" stroke-miterlimit="10" x1="0" y1="25" x2="50" y2="25"/>
		<line display="inline" fill="none" stroke="#000000" stroke-miterlimit="10" x1="0" y1="12.5" x2="50" y2="12.5"/>
		<line display="inline" fill="none" stroke="#000000" stroke-miterlimit="10" x1="37.5" y1="0" x2="37.5" y2="50"/>
		<line display="inline" fill="none" stroke="#000000" stroke-miterlimit="10" x1="25" y1="0" x2="25" y2="50"/>
		<line display="inline" fill="none" stroke="#000000" stroke-miterlimit="10" x1="12.5" y1="0" x2="12.5" y2="50"/>
	</g>
</g>
<g>
	<path fill="#161615" d="M37.428,17.025h-4.852l-2.821-2.828c-0.004-0.003-0.008-0.006-0.01-0.01l-0.006-0.004l0,0
		c-0.423-0.42-1.005-0.678-1.649-0.678h-5.867c-0.682,0-1.29,0.294-1.719,0.758l-0.002-0.006l-2.763,2.769h-4.953
		c-1.296,0-2.347,1.051-2.347,2.347v14.082c0,1.295,1.051,2.347,2.347,2.347h24.642c1.298,0,2.348-1.052,2.348-2.347V19.372
		C39.775,18.076,38.726,17.025,37.428,17.025z M38.603,33.454c0,0.646-0.527,1.173-1.175,1.173H12.786
		c-0.646,0-1.173-0.526-1.173-1.173V19.372c0-0.647,0.526-1.173,1.173-1.173h4.953h0.486l0.345-0.345l1.42-1.423l0.029,0.085
		l1.347-1.457c0.228-0.247,0.532-0.381,0.857-0.381h5.867c0.311,0,0.604,0.12,0.834,0.347l2.82,2.828l0.344,0.345h0.488h4.852
		c0.647,0,1.175,0.526,1.175,1.173V33.454L38.603,33.454z"/>
	<path fill="#161615" d="M25.107,18.199c-4.212,0-7.627,3.414-7.627,7.626s3.415,7.629,7.627,7.629c4.212,0,7.627-3.417,7.627-7.629
		C32.734,21.612,29.32,18.199,25.107,18.199z M25.107,32.28c-3.559,0-6.454-2.896-6.454-6.455c0-3.558,2.896-6.453,6.454-6.453
		s6.454,2.895,6.454,6.453C31.562,29.385,28.666,32.28,25.107,32.28z"/>
	<path fill="#161615" d="M25.107,20.545c-2.917,0-5.28,2.364-5.28,5.28c0,2.917,2.363,5.281,5.28,5.281
		c2.916,0,5.28-2.364,5.28-5.281C30.388,22.909,28.023,20.545,25.107,20.545z M25.107,29.934c-2.264,0-4.106-1.845-4.106-4.108
		c0-2.265,1.842-4.105,4.106-4.105c2.264,0,4.106,1.841,4.106,4.105C29.214,28.089,27.371,29.934,25.107,29.934z"/>
</g>
</svg>
