<?xml version="1.0" encoding="utf-8"?>
<!-- Generator: Adobe Illustrator 15.1.0, SVG Export Plug-In . SVG Version: 6.00 Build 0)  -->
<!DOCTYPE svg PUBLIC "-//W3C//DTD SVG 1.1//EN" "http://www.w3.org/Graphics/SVG/1.1/DTD/svg11.dtd">
<svg version="1.1" id="Layer_1" xmlns="http://www.w3.org/2000/svg" xmlns:xlink="http://www.w3.org/1999/xlink" x="0px" y="0px"
	 width="50px" height="50px" viewBox="0 0 50 50" enable-background="new 0 0 50 50" xml:space="preserve">
<g id="Layer_2">
	
		<line opacity="0.68" fill="none" stroke="#E06EBD" stroke-width="3" stroke-linecap="round" stroke-miterlimit="10" enable-background="new    " x1="43.625" y1="5.75" x2="43.625" y2="44"/>
	
		<line opacity="0.68" fill="none" stroke="#E06EBD" stroke-width="3" stroke-linecap="round" stroke-miterlimit="10" enable-background="new    " x1="5.602" y1="18.227" x2="31.875" y2="44.5"/>
	
		<line opacity="0.68" fill="none" stroke="#E06EBD" stroke-width="3" stroke-linecap="round" stroke-miterlimit="10" enable-background="new    " x1="43.625" y1="31.75" x2="6.375" y2="31.75"/>
</g>
<g id="Layer_1_1_">
	<g display="none">
		<rect display="inline" fill="none" stroke="#000000" stroke-miterlimit="10" width="50" height="50"/>
		<line display="inline" fill="none" stroke="#000000" stroke-miterlimit="10" x1="0" y1="37.5" x2="50" y2="37.5"/>
		<line display="inline" fill="none" stroke="#000000" stroke-miterlimit="10" x1="0" y1="25" x2="50" y2="25"/>
		<line display="inline" fill="none" stroke="#000000" stroke-miterlimit="10" x1="0" y1="12.5" x2="50" y2="12.5"/>
		<line display="inline" fill="none" stroke="#000000" stroke-miterlimit="10" x1="37.5" y1="0" x2="37.5" y2="50"/>
		<line display="inline" fill="none" stroke="#000000" stroke-miterlimit="10" x1="25" y1="0" x2="25" y2="50"/>
		<line display="inline" fill="none" stroke="#000000" stroke-miterlimit="10" x1="12.5" y1="0" x2="12.5" y2="50"/>
	</g>
	<g>
		<path d="M41.055,2.964c0.529-0.09,1.159-0.15,1.85-0.15c1.248,0,2.14,0.3,2.729,0.839c0.609,0.55,0.96,1.329,0.96,2.419
			c0,1.099-0.351,1.999-0.97,2.618c-0.642,0.63-1.681,0.97-2.987,0.97c-0.631,0-1.141-0.03-1.578-0.08V2.964H41.055z M41.924,8.92
			c0.221,0.03,0.54,0.04,0.881,0.04c1.868,0,2.867-1.04,2.867-2.858c0.01-1.589-0.89-2.599-2.729-2.599
			c-0.449,0-0.789,0.04-1.021,0.09L41.924,8.92L41.924,8.92z"/>
	</g>
	<g>
		<path d="M29.77,2.864v3.998C29.77,8.361,30.438,9,31.338,9c0.99,0,1.641-0.66,1.641-2.139V2.863h0.879v3.938
			c0,2.069-1.09,2.908-2.549,2.908c-1.379,0-2.418-0.779-2.418-2.878V2.863h0.879V2.864z"/>
	</g>
	<g>
		<path d="M17.664,7.481l-0.7,2.119h-0.899l2.299-6.736h1.04L21.702,9.6h-0.93l-0.72-2.119H17.664z M19.883,6.802l-0.67-1.939
			c-0.149-0.44-0.25-0.84-0.35-1.229h-0.02c-0.101,0.39-0.2,0.81-0.34,1.219l-0.66,1.949H19.883z"/>
	</g>
	<g>
		<path d="M3.805,2.964c0.529-0.09,1.159-0.15,1.849-0.15c1.249,0,2.139,0.3,2.729,0.839c0.609,0.55,0.96,1.329,0.96,2.419
			c0,1.099-0.351,1.999-0.97,2.618c-0.64,0.63-1.679,0.97-2.988,0.97c-0.63,0-1.14-0.03-1.579-0.08L3.805,2.964L3.805,2.964z
			 M4.674,8.92c0.22,0.03,0.54,0.04,0.88,0.04c1.869,0,2.868-1.04,2.868-2.858c0.01-1.589-0.89-2.599-2.729-2.599
			c-0.449,0-0.789,0.04-1.02,0.09L4.674,8.92L4.674,8.92z"/>
	</g>
	<g>
		<path d="M46.695,18.662c0,2.309-1.408,3.548-3.127,3.548c-1.789,0-3.028-1.389-3.028-3.428c0-2.139,1.319-3.538,3.118-3.538
			C45.507,15.244,46.695,16.653,46.695,18.662z M41.459,18.762c0,1.449,0.779,2.739,2.159,2.739c1.379,0,2.159-1.27,2.159-2.798
			c0-1.35-0.7-2.749-2.149-2.749C42.18,15.954,41.459,17.293,41.459,18.762z"/>
	</g>
	<g>
		<path d="M30.164,19.981l-0.7,2.119h-0.899l2.299-6.736h1.041l2.3,6.736h-0.931l-0.721-2.119H30.164z M32.383,19.302l-0.67-1.939
			c-0.148-0.44-0.25-0.84-0.35-1.229h-0.021c-0.101,0.39-0.199,0.81-0.34,1.219l-0.66,1.949H32.383z"/>
	</g>
	<g>
		<path d="M17.06,21.041c0.39,0.25,0.95,0.44,1.55,0.44c0.889,0,1.409-0.47,1.409-1.149c0-0.62-0.36-0.989-1.27-1.329
			c-1.1-0.4-1.779-0.979-1.779-1.919c0-1.05,0.87-1.829,2.179-1.829c0.68,0,1.189,0.16,1.479,0.33l-0.24,0.71
			c-0.21-0.13-0.659-0.32-1.269-0.32c-0.92,0-1.27,0.549-1.27,1.009c0,0.63,0.409,0.939,1.339,1.299
			c1.14,0.44,1.709,0.989,1.709,1.979c0,1.04-0.76,1.949-2.349,1.949c-0.649,0-1.359-0.2-1.719-0.439L17.06,21.041z"/>
	</g>
	<g>
		<path d="M4.425,15.364h0.869v3.248h0.03c0.18-0.26,0.359-0.5,0.529-0.719l2.06-2.529h1.079l-2.438,2.858L9.182,22.1h-1.03
			l-2.209-3.308l-0.649,0.74V22.1H4.425V15.364z"/>
	</g>
	<g>
		<path d="M46.695,31.162c0,2.309-1.408,3.548-3.127,3.548c-1.789,0-3.028-1.39-3.028-3.429c0-2.139,1.319-3.537,3.118-3.537
			C45.507,27.744,46.695,29.152,46.695,31.162z M41.459,31.262c0,1.449,0.779,2.738,2.159,2.738c1.379,0,2.159-1.27,2.159-2.798
			c0-1.351-0.7-2.749-2.149-2.749C42.18,28.453,41.459,29.793,41.459,31.262z"/>
	</g>
	<g>
		<path d="M29.475,27.943c0.42-0.069,0.971-0.129,1.67-0.129c0.858,0,1.488,0.199,1.89,0.559c0.358,0.32,0.59,0.811,0.59,1.41
			c0,0.609-0.181,1.089-0.521,1.439c-0.471,0.487-1.209,0.736-2.06,0.736c-0.26,0-0.5-0.01-0.7-0.061V34.6h-0.869V27.943z
			 M30.344,31.191c0.19,0.051,0.43,0.068,0.721,0.068c1.049,0,1.688-0.52,1.688-1.43c0-0.896-0.64-1.328-1.59-1.328
			c-0.379,0-0.669,0.029-0.819,0.068V31.191z"/>
	</g>
	<g>
		<path d="M20.652,31.441h-2.608v2.43h2.919V34.6h-3.798v-6.734h3.647v0.729h-2.769v2.129h2.608L20.652,31.441L20.652,31.441z"/>
	</g>
	<g>
		<path d="M3.845,34.6v-6.734h0.959l2.149,3.406c0.489,0.791,0.89,1.5,1.199,2.189l0.03-0.01c-0.08-0.9-0.101-1.721-0.101-2.77
			v-2.818H8.9V34.6H8.022l-2.139-3.418c-0.47-0.748-0.92-1.52-1.25-2.248l-0.029,0.01c0.05,0.852,0.06,1.66,0.06,2.779V34.6H3.845z"
			/>
	</g>
	<g>
		<path d="M41.943,40.453c0.438-0.079,1.08-0.139,1.67-0.139c0.93,0,1.539,0.18,1.949,0.549c0.328,0.301,0.527,0.76,0.527,1.289
			c0,0.88-0.561,1.47-1.259,1.709v0.031c0.509,0.18,0.817,0.656,0.979,1.356c0.221,0.938,0.379,1.589,0.521,1.851h-0.899
			c-0.108-0.199-0.26-0.771-0.438-1.608c-0.199-0.931-0.569-1.279-1.359-1.31h-0.817V47.1h-0.869v-6.646L41.943,40.453
			L41.943,40.453z M42.813,43.521h0.892c0.93,0,1.521-0.512,1.521-1.279c0-0.869-0.631-1.248-1.551-1.248
			c-0.419,0-0.709,0.029-0.857,0.068v2.459H42.813z"/>
	</g>
	<g>
		<path d="M31.18,47.1v-2.855l-2.14-3.879h0.999l0.949,1.857c0.25,0.51,0.46,0.92,0.67,1.389h0.021
			c0.18-0.438,0.42-0.879,0.68-1.389l0.969-1.857h0.979l-2.248,3.867V47.1H31.18z"/>
	</g>
	<g>
		<path d="M18.679,41.104H16.63v-0.738h4.987v0.738h-2.06V47.1h-0.879L18.679,41.104L18.679,41.104z"/>
	</g>
	<g>
		<path d="M9.041,44.143c-0.05-0.938-0.109-2.08-0.109-2.908H8.911c-0.239,0.779-0.51,1.63-0.85,2.56l-1.188,3.271h-0.66l-1.1-3.209
			c-0.319-0.959-0.579-1.818-0.77-2.619h-0.02c-0.021,0.84-0.07,1.959-0.13,2.979L4.015,47.1h-0.83l0.47-6.734h1.109l1.149,3.259
			c0.28,0.829,0.5,1.567,0.68,2.271h0.02c0.181-0.682,0.42-1.42,0.72-2.271l1.199-3.259h1.109l0.42,6.734h-0.86L9.041,44.143z"/>
	</g>
	<rect x="96.25" y="2.5" fill="none" width="12.75" height="10"/>
	<text transform="matrix(1 0 0 1 99.2949 9.6006)" font-family="'MyriadPro-Regular'" font-size="10">D</text>
	<rect x="84" y="2.5" fill="none" width="12.75" height="10"/>
	<text transform="matrix(1 0 0 1 87.1406 9.6006)" font-family="'MyriadPro-Regular'" font-size="10">U</text>
	<rect x="71.5" y="2.5" fill="none" width="12.75" height="10"/>
	<text transform="matrix(1 0 0 1 74.8145 9.6006)" font-family="'MyriadPro-Regular'" font-size="10">A</text>
	<rect x="59" y="2.5" fill="none" width="12.75" height="10"/>
	<text transform="matrix(1 0 0 1 62.0449 9.6006)" font-family="'MyriadPro-Regular'" font-size="10">D</text>
	<rect x="96.25" y="15" fill="none" width="12.75" height="10"/>
	<text transform="matrix(1 0 0 1 99.1797 22.1006)" font-family="'MyriadPro-Regular'" font-size="10">O</text>
	<rect x="84" y="15" fill="none" width="12.75" height="10"/>
	<text transform="matrix(1 0 0 1 87.3145 22.1006)" font-family="'MyriadPro-Regular'" font-size="10">A</text>
	<rect x="71.5" y="15" fill="none" width="12.75" height="10"/>
	<text transform="matrix(1 0 0 1 75.4102 22.1006)" font-family="'MyriadPro-Regular'" font-size="10">S</text>
	<rect x="59" y="15" fill="none" width="12.75" height="10"/>
	<text transform="matrix(1 0 0 1 62.665 22.1006)" font-family="'MyriadPro-Regular'" font-size="10">K</text>
	<rect x="96.25" y="27.5" fill="none" width="12.75" height="10"/>
	<text transform="matrix(1 0 0 1 99.1797 34.5996)" font-family="'MyriadPro-Regular'" font-size="10">O</text>
	<rect x="84" y="27.5" fill="none" width="12.75" height="10"/>
	<text transform="matrix(1 0 0 1 87.7148 34.5996)" font-family="'MyriadPro-Regular'" font-size="10">P</text>
	<rect x="71.5" y="27.5" fill="none" width="12.75" height="10"/>
	<text transform="matrix(1 0 0 1 75.415 34.5996)" font-family="'MyriadPro-Regular'" font-size="10">E</text>
	<rect x="59" y="27.5" fill="none" width="12.75" height="10"/>
	<text transform="matrix(1 0 0 1 62.085 34.5996)" font-family="'MyriadPro-Regular'" font-size="10">N</text>
	<rect x="96.5" y="40" fill="none" width="12.75" height="10"/>
	<text transform="matrix(1 0 0 1 100.1846 47.0996)" font-family="'MyriadPro-Regular'" font-size="10">R</text>
	<rect x="84.25" y="40" fill="none" width="12.75" height="10"/>
	<text transform="matrix(1 0 0 1 87.9199 47.0996)" font-family="'MyriadPro-Regular'" font-size="10">Y</text>
	<rect x="71.75" y="40" fill="none" width="12.75" height="10"/>
	<text transform="matrix(1 0 0 1 75.6396 47.0996)" font-family="'MyriadPro-Regular'" font-size="10">T</text>
	<rect x="59.25" y="40" fill="none" width="12.75" height="10"/>
	<text transform="matrix(1 0 0 1 61.6055 47.0996)" font-family="'MyriadPro-Regular'" font-size="10">M</text>
</g>
</svg>
