<?xml version="1.0" encoding="utf-8"?>
<!-- Generator: Adobe Illustrator 15.1.0, SVG Export Plug-In . SVG Version: 6.00 Build 0)  -->
<!DOCTYPE svg PUBLIC "-//W3C//DTD SVG 1.1//EN" "http://www.w3.org/Graphics/SVG/1.1/DTD/svg11.dtd">
<svg version="1.1" id="Layer_1" xmlns="http://www.w3.org/2000/svg" xmlns:xlink="http://www.w3.org/1999/xlink" x="0px" y="0px"
	 width="50px" height="50px" viewBox="0 0 50 50" enable-background="new 0 0 50 50" xml:space="preserve">
<g>
	<rect fill="none" stroke="#000000" stroke-width="0.5" stroke-miterlimit="10" width="50" height="50"/>
	<line fill="none" stroke="#000000" stroke-width="0.5" stroke-miterlimit="10" x1="0" y1="33.325" x2="50" y2="33.325"/>
	<line fill="none" stroke="#000000" stroke-width="0.5" stroke-miterlimit="10" x1="0" y1="16.675" x2="50" y2="16.675"/>
	<line fill="none" stroke="#000000" stroke-width="0.5" stroke-miterlimit="10" x1="33.338" y1="0" x2="33.338" y2="50"/>
	<line fill="none" stroke="#000000" stroke-width="0.5" stroke-miterlimit="10" x1="16.663" y1="0" x2="16.663" y2="50"/>
</g>
<g enable-background="new    ">
	<path d="M27.535,4.99h-2.974l-0.3,2.003c0.18-0.024,0.348-0.036,0.636-0.036c0.611,0,1.199,0.12,1.679,0.42
		c0.611,0.336,1.115,1.02,1.115,1.991c0,1.522-1.211,2.662-2.902,2.662c-0.852,0-1.559-0.24-1.943-0.479l0.264-0.804
		c0.324,0.192,0.959,0.432,1.679,0.432c0.982,0,1.848-0.647,1.835-1.691c0-1.007-0.685-1.715-2.231-1.715
		c-0.456,0-0.804,0.036-1.091,0.072l0.504-3.742h3.729V4.99z"/>
</g>
<g enable-background="new    ">
	<path d="M40.99,24.447c-0.875-0.408-1.248-1.08-1.248-1.751c0-1.235,1.044-2.075,2.424-2.075c1.512,0,2.277,0.936,2.277,1.919
		c0,0.66-0.336,1.379-1.295,1.823v0.036c0.973,0.384,1.572,1.079,1.572,2.015c0,1.367-1.164,2.266-2.652,2.266
		c-1.631,0-2.613-0.959-2.613-2.098c0-0.984,0.588-1.692,1.547-2.099L40.99,24.447z M43.652,26.521c0-0.937-0.659-1.403-1.715-1.704
		c-0.912,0.264-1.403,0.875-1.403,1.62c-0.036,0.778,0.563,1.475,1.56,1.475C43.041,27.912,43.652,27.324,43.652,26.521z
		 M40.75,22.624c-0.012,0.779,0.588,1.199,1.486,1.439c0.673-0.229,1.188-0.708,1.188-1.415c0-0.624-0.372-1.271-1.319-1.271
		C41.23,21.376,40.75,21.952,40.75,22.624z"/>
</g>
<g enable-background="new    ">
	<path d="M42.813,45.223v-2.135h-3.621v-0.684l3.479-4.978h1.14v4.847h1.09v0.813h-1.092v2.136H42.813L42.813,45.223z
		 M42.813,42.273V39.67c0-0.408,0.014-0.814,0.037-1.223h-0.037c-0.238,0.455-0.432,0.791-0.646,1.15l-1.908,2.649v0.024h2.554
		V42.273z"/>
</g>
<g enable-background="new    ">
	<path d="M11.274,37.428v0.695l-3.394,7.1H6.789l3.382-6.896v-0.022H6.357V37.43h4.917V37.428z"/>
</g>
</svg>
